<svg width="347" height="80" viewBox="0 0 347 80" fill="none" xmlns="http://www.w3.org/2000/svg">
<path d="M2.35795 19H0.511364L5.85227 4.45455H7.67045L13.0114 19H11.1648L6.81818 6.75568H6.70455L2.35795 19ZM3.03977 13.3182H10.483V14.8807H3.03977V13.3182ZM16.7559 4.45455V19H15.0797V4.45455H16.7559ZM23.066 19.2557C22.3747 19.2557 21.7474 19.1255 21.1839 18.8651C20.6205 18.5999 20.173 18.2188 19.8416 17.7216C19.5102 17.2197 19.3444 16.6136 19.3444 15.9034C19.3444 15.2784 19.4676 14.7718 19.7138 14.3835C19.96 13.9905 20.289 13.6828 20.701 13.4602C21.1129 13.2377 21.5675 13.072 22.0646 12.9631C22.5665 12.8494 23.0708 12.7595 23.5774 12.6932C24.2403 12.608 24.7777 12.544 25.1896 12.5014C25.6063 12.4541 25.9093 12.3759 26.0987 12.267C26.2928 12.1581 26.3899 11.9687 26.3899 11.6989V11.642C26.3899 10.9413 26.1981 10.3968 25.8146 10.0085C25.4358 9.62027 24.8605 9.42614 24.0888 9.42614C23.2886 9.42614 22.6612 9.60133 22.2067 9.9517C21.7521 10.3021 21.4325 10.6761 21.2479 11.0739L19.6569 10.5057C19.941 9.8428 20.3198 9.3267 20.7933 8.95739C21.2715 8.58333 21.7924 8.32292 22.3558 8.17614C22.924 8.02462 23.4827 7.94886 24.0319 7.94886C24.3823 7.94886 24.7848 7.99148 25.2393 8.0767C25.6986 8.1572 26.1413 8.32528 26.5675 8.58097C26.9983 8.83665 27.3558 9.22254 27.6399 9.73864C27.924 10.2547 28.066 10.946 28.066 11.8125V19H26.3899V17.5227H26.3047C26.191 17.7595 26.0016 18.0128 25.7365 18.2827C25.4713 18.5526 25.1186 18.7822 24.6783 18.9716C24.2379 19.161 23.7005 19.2557 23.066 19.2557ZM23.3217 17.75C23.9846 17.75 24.5433 17.6198 24.9979 17.3594C25.4571 17.099 25.8028 16.7628 26.0348 16.3509C26.2715 15.9389 26.3899 15.5057 26.3899 15.0511V13.517C26.3189 13.6023 26.1626 13.6804 25.9212 13.7514C25.6844 13.8177 25.4098 13.8769 25.0973 13.929C24.7895 13.9763 24.4889 14.0189 24.1953 14.0568C23.9065 14.09 23.6721 14.1184 23.4922 14.142C23.0566 14.1989 22.6494 14.2912 22.2706 14.419C21.8965 14.5421 21.5935 14.7292 21.3615 14.9801C21.1342 15.2263 21.0206 15.5625 21.0206 15.9886C21.0206 16.571 21.236 17.0114 21.6669 17.3097C22.1025 17.6032 22.6541 17.75 23.3217 17.75ZM32.8315 12.4375V19H31.1553V8.09091H32.7747V9.79545H32.9167C33.1724 9.24148 33.5606 8.7964 34.0815 8.46023C34.6023 8.11932 35.2747 7.94886 36.0985 7.94886C36.8372 7.94886 37.4835 8.10038 38.0374 8.40341C38.5914 8.7017 39.0223 9.15625 39.3301 9.76705C39.6378 10.3731 39.7917 11.1402 39.7917 12.0682V19H38.1156V12.1818C38.1156 11.3248 37.893 10.6572 37.448 10.179C37.0029 9.69602 36.3921 9.45455 35.6156 9.45455C35.0805 9.45455 34.6023 9.57055 34.1809 9.80256C33.7642 10.0346 33.4352 10.3731 33.1937 10.8182C32.9522 11.2633 32.8315 11.803 32.8315 12.4375ZM47.9714 6.01705V4.45455H58.8805V6.01705H54.3066V19H52.5452V6.01705H47.9714ZM60.2688 19V8.09091H61.8881V9.73864H62.0017C62.2006 9.19886 62.5604 8.76089 63.0813 8.42472C63.6021 8.08854 64.1892 7.92045 64.8426 7.92045C64.9657 7.92045 65.1196 7.92282 65.3043 7.92756C65.4889 7.93229 65.6286 7.93939 65.7233 7.94886V9.65341C65.6665 9.6392 65.5363 9.6179 65.3327 9.58949C65.1338 9.55634 64.9231 9.53977 64.7006 9.53977C64.1703 9.53977 63.6968 9.65104 63.2801 9.87358C62.8682 10.0914 62.5415 10.3944 62.3 10.7827C62.0633 11.1662 61.9449 11.6042 61.9449 12.0966V19H60.2688ZM71.84 19.2273C70.8551 19.2273 69.991 18.9929 69.2476 18.5241C68.509 18.0554 67.9314 17.3996 67.5147 16.5568C67.1028 15.714 66.8968 14.7292 66.8968 13.6023C66.8968 12.4659 67.1028 11.474 67.5147 10.6264C67.9314 9.77888 68.509 9.12074 69.2476 8.65199C69.991 8.18324 70.8551 7.94886 71.84 7.94886C72.8248 7.94886 73.6866 8.18324 74.4252 8.65199C75.1686 9.12074 75.7462 9.77888 76.1582 10.6264C76.5748 11.474 76.7832 12.4659 76.7832 13.6023C76.7832 14.7292 76.5748 15.714 76.1582 16.5568C75.7462 17.3996 75.1686 18.0554 74.4252 18.5241C73.6866 18.9929 72.8248 19.2273 71.84 19.2273ZM71.84 17.7216C72.5881 17.7216 73.2036 17.5298 73.6866 17.1463C74.1695 16.7628 74.527 16.2585 74.759 15.6335C74.991 15.0085 75.107 14.3314 75.107 13.6023C75.107 12.8731 74.991 12.1937 74.759 11.5639C74.527 10.9342 74.1695 10.4252 73.6866 10.0369C73.2036 9.64867 72.5881 9.45455 71.84 9.45455C71.0919 9.45455 70.4763 9.64867 69.9934 10.0369C69.5104 10.4252 69.1529 10.9342 68.9209 11.5639C68.6889 12.1937 68.5729 12.8731 68.5729 13.6023C68.5729 14.3314 68.6889 15.0085 68.9209 15.6335C69.1529 16.2585 69.5104 16.7628 69.9934 17.1463C70.4763 17.5298 71.0919 17.7216 71.84 17.7216ZM84.1161 8.09091V9.51136H78.4627V8.09091H84.1161ZM80.1104 5.47727H81.7865V15.875C81.7865 16.3485 81.8552 16.7036 81.9925 16.9403C82.1345 17.1723 82.3145 17.3286 82.5323 17.4091C82.7548 17.4848 82.9892 17.5227 83.2354 17.5227C83.42 17.5227 83.5716 17.5133 83.6899 17.4943C83.8083 17.4706 83.903 17.4517 83.974 17.4375L84.3149 18.9432C84.2013 18.9858 84.0427 19.0284 83.8391 19.071C83.6355 19.1184 83.3774 19.142 83.0649 19.142C82.5914 19.142 82.1274 19.0402 81.6729 18.8366C81.2231 18.633 80.849 18.3229 80.5507 17.9062C80.2572 17.4896 80.1104 16.964 80.1104 16.3295V5.47727ZM91.4117 8.09091V9.51136H85.7583V8.09091H91.4117ZM87.406 5.47727H89.0821V15.875C89.0821 16.3485 89.1508 16.7036 89.2881 16.9403C89.4302 17.1723 89.6101 17.3286 89.8279 17.4091C90.0504 17.4848 90.2848 17.5227 90.531 17.5227C90.7157 17.5227 90.8672 17.5133 90.9856 17.4943C91.1039 17.4706 91.1986 17.4517 91.2696 17.4375L91.6106 18.9432C91.4969 18.9858 91.3383 19.0284 91.1347 19.071C90.9311 19.1184 90.6731 19.142 90.3606 19.142C89.8871 19.142 89.4231 19.0402 88.9685 18.8366C88.5187 18.633 88.1446 18.3229 87.8463 17.9062C87.5528 17.4896 87.406 16.964 87.406 16.3295V5.47727ZM98.4197 19.2273C97.3685 19.2273 96.4618 18.9953 95.6995 18.5312C94.9419 18.0625 94.3572 17.4091 93.9452 16.571C93.538 15.7282 93.3344 14.7481 93.3344 13.6307C93.3344 12.5133 93.538 11.5284 93.9452 10.6761C94.3572 9.81913 94.9301 9.15152 95.664 8.6733C96.4026 8.19034 97.2644 7.94886 98.2492 7.94886C98.8174 7.94886 99.3785 8.04356 99.9325 8.23295C100.486 8.42235 100.991 8.73011 101.445 9.15625C101.9 9.57765 102.262 10.1364 102.532 10.8324C102.802 11.5284 102.937 12.3854 102.937 13.4034V14.1136H94.5276V12.6648H101.232C101.232 12.0492 101.109 11.5 100.863 11.017C100.621 10.5341 100.276 10.1529 99.8259 9.87358C99.3809 9.59422 98.8553 9.45455 98.2492 9.45455C97.5816 9.45455 97.004 9.62026 96.5163 9.9517C96.0333 10.2784 95.6616 10.7045 95.4012 11.2301C95.1408 11.7557 95.0106 12.3191 95.0106 12.9205V13.8864C95.0106 14.7102 95.1526 15.4086 95.4367 15.9815C95.7255 16.5497 96.1256 16.983 96.637 17.2812C97.1484 17.5748 97.7426 17.7216 98.4197 17.7216C98.86 17.7216 99.2577 17.66 99.6129 17.5369C99.9727 17.4091 100.283 17.2197 100.543 16.9688C100.804 16.7131 101.005 16.3958 101.147 16.017L102.766 16.4716C102.596 17.0208 102.309 17.5038 101.907 17.9205C101.504 18.3324 101.007 18.6544 100.415 18.8864C99.8236 19.1136 99.1583 19.2273 98.4197 19.2273ZM105.516 19V8.09091H107.136V9.73864H107.249C107.448 9.19886 107.808 8.76089 108.329 8.42472C108.85 8.08854 109.437 7.92045 110.09 7.92045C110.213 7.92045 110.367 7.92282 110.552 7.92756C110.737 7.93229 110.876 7.93939 110.971 7.94886V9.65341C110.914 9.6392 110.784 9.6179 110.58 9.58949C110.381 9.55634 110.171 9.53977 109.948 9.53977C109.418 9.53977 108.944 9.65104 108.528 9.87358C108.116 10.0914 107.789 10.3944 107.548 10.7827C107.311 11.1662 107.193 11.6042 107.193 12.0966V19H105.516Z" fill="white"/>
<path d="M2.55682 44.7273H6.81818L14.2273 62.8182H14.5L21.9091 44.7273H26.1705V68H22.8295V51.1591H22.6136L15.75 67.9659H12.9773L6.11364 51.1477H5.89773V68H2.55682V44.7273ZM46.3215 44.7273H49.8442V60.0341C49.8442 61.6629 49.4616 63.1061 48.6965 64.3636C47.9313 65.6136 46.8556 66.5985 45.4692 67.3182C44.0828 68.0303 42.4578 68.3864 40.5942 68.3864C38.7381 68.3864 37.1169 68.0303 35.7306 67.3182C34.3442 66.5985 33.2684 65.6136 32.5033 64.3636C31.7381 63.1061 31.3556 61.6629 31.3556 60.0341V44.7273H34.8669V59.75C34.8669 60.803 35.098 61.7386 35.5601 62.5568C36.0298 63.375 36.6927 64.0189 37.5487 64.4886C38.4048 64.9508 39.42 65.1818 40.5942 65.1818C41.776 65.1818 42.795 64.9508 43.651 64.4886C44.5147 64.0189 45.1738 63.375 45.6283 62.5568C46.0904 61.7386 46.3215 60.803 46.3215 59.75V44.7273ZM67.7225 50.8409C67.6013 49.7652 67.1013 48.9318 66.2225 48.3409C65.3437 47.7424 64.2377 47.4432 62.9043 47.4432C61.9498 47.4432 61.124 47.5947 60.427 47.8977C59.7301 48.1932 59.1884 48.6023 58.802 49.125C58.4233 49.6402 58.2339 50.2273 58.2339 50.8864C58.2339 51.4394 58.3627 51.9167 58.6202 52.3182C58.8854 52.7197 59.2301 53.0568 59.6543 53.3295C60.0861 53.5947 60.5483 53.8182 61.0407 54C61.5331 54.1742 62.0066 54.3182 62.4611 54.4318L64.7339 55.0227C65.4763 55.2045 66.2377 55.4508 67.018 55.7614C67.7983 56.072 68.5217 56.4811 69.1884 56.9886C69.8551 57.4962 70.393 58.125 70.802 58.875C71.2187 59.625 71.427 60.5227 71.427 61.5682C71.427 62.8864 71.0861 64.0568 70.4043 65.0795C69.7301 66.1023 68.749 66.9091 67.4611 67.5C66.1808 68.0909 64.6316 68.3864 62.8134 68.3864C61.071 68.3864 59.5634 68.1098 58.2907 67.5568C57.018 67.0038 56.0217 66.2197 55.302 65.2045C54.5823 64.1818 54.1846 62.9697 54.1089 61.5682H57.6316C57.6998 62.4091 57.9725 63.1098 58.4498 63.6705C58.9346 64.2235 59.552 64.6364 60.302 64.9091C61.0596 65.1742 61.8892 65.3068 62.7907 65.3068C63.7831 65.3068 64.6657 65.1515 65.4384 64.8409C66.2187 64.5227 66.8323 64.0833 67.2793 63.5227C67.7263 62.9545 67.9498 62.2917 67.9498 61.5341C67.9498 60.8447 67.7528 60.2803 67.3589 59.8409C66.9725 59.4015 66.446 59.0379 65.7793 58.75C65.1202 58.4621 64.374 58.2083 63.5407 57.9886L60.7907 57.2386C58.927 56.7311 57.4498 55.9848 56.3589 55C55.2755 54.0152 54.7339 52.7121 54.7339 51.0909C54.7339 49.75 55.0975 48.5795 55.8248 47.5795C56.552 46.5795 57.5369 45.803 58.7793 45.25C60.0217 44.6894 61.4233 44.4091 62.9839 44.4091C64.5596 44.4091 65.9498 44.6856 67.1543 45.2386C68.3664 45.7917 69.321 46.553 70.018 47.5227C70.7149 48.4848 71.0786 49.5909 71.1089 50.8409H67.7225ZM95.0326 52.2955H91.4872C91.3508 51.5379 91.097 50.8712 90.7258 50.2955C90.3546 49.7197 89.9 49.2311 89.3622 48.8295C88.8243 48.428 88.222 48.125 87.5553 47.9205C86.8962 47.7159 86.1955 47.6136 85.4531 47.6136C84.1122 47.6136 82.9114 47.9508 81.8508 48.625C80.7978 49.2992 79.9644 50.2879 79.3508 51.5909C78.7447 52.8939 78.4417 54.4848 78.4417 56.3636C78.4417 58.2576 78.7447 59.8561 79.3508 61.1591C79.9644 62.4621 80.8016 63.447 81.8622 64.1136C82.9228 64.7803 84.1159 65.1136 85.4417 65.1136C86.1766 65.1136 86.8735 65.0152 87.5326 64.8182C88.1993 64.6136 88.8016 64.3144 89.3394 63.9205C89.8773 63.5265 90.3319 63.0455 90.7031 62.4773C91.0819 61.9015 91.3432 61.2424 91.4872 60.5L95.0326 60.5114C94.8432 61.6553 94.4758 62.7083 93.9303 63.6705C93.3925 64.625 92.6993 65.4508 91.8508 66.1477C91.0099 66.8371 90.0478 67.3712 88.9644 67.75C87.8811 68.1288 86.6993 68.3182 85.419 68.3182C83.4038 68.3182 81.6084 67.8409 80.0326 66.8864C78.4569 65.9242 77.2144 64.5492 76.3053 62.7614C75.4038 60.9735 74.9531 58.8409 74.9531 56.3636C74.9531 53.8788 75.4076 51.7462 76.3167 49.9659C77.2258 48.178 78.4682 46.8068 80.044 45.8523C81.6197 44.8902 83.4114 44.4091 85.419 44.4091C86.6538 44.4091 87.8053 44.5871 88.8735 44.9432C89.9493 45.2917 90.9152 45.8068 91.7712 46.4886C92.6273 47.1629 93.3356 47.9886 93.8962 48.9659C94.4569 49.9356 94.8356 51.0455 95.0326 52.2955ZM99.3143 68V44.7273H102.826V64.9773H113.371V68H99.3143ZM117.457 68V44.7273H132.048V47.75H120.968V54.8409H131.286V57.8523H120.968V64.9773H132.184V68H117.457Z" fill="white"/>
</svg>
